<?xml version="1.0" encoding="utf-8"?>
<!-- Svg Vector Icons : http://www.onlinewebfonts.com/icon -->
<!DOCTYPE svg PUBLIC "-//W3C//DTD SVG 1.1//EN" "http://www.w3.org/Graphics/SVG/1.1/DTD/svg11.dtd">
<svg version="1.1" xmlns="http://www.w3.org/2000/svg" xmlns:xlink="http://www.w3.org/1999/xlink" x="0px" y="0px" viewBox="0 0 1000 1000" enable-background="new 0 0 1000 1000" xml:space="preserve">
<metadata> Svg Vector Icons : http://www.onlinewebfonts.com/icon </metadata>
<g><path d="M793.9,169.8h4.3c24.4,0,44.3-19.9,44.3-44.3V90.3l75.3-0.8c0-30.4,0.2-79.5,0.2-79.5H82.1l0,79.5c23.4,0,73.7,0.8,73.7,0.8v35.2c0,24.4,19.9,44.3,44.3,44.3h4.4c0,106.8,33.5,207.6,117.9,276.8c7.4,6.7,25,22.6,34,31.3c6.9,7.7,12.3,15.4,12.6,20.9c0.9,13.1-15.3,29.6-28.1,40.5c-0.2,0.2-0.4,0.4-0.5,0.6c-97.5,69.2-135.7,176.3-135.8,290.3H200c-24.4,0-44.3,19.9-44.3,44.3v35.2l-73.6,0.1c0.8,27.1,0,80.2,0,80.2h833.7c0-30.8,0-30.3,0-80.8l-73.3,0.5v-35.2c0-24.4-19.9-44.3-44.3-44.3h-4.3c-0.1-113.7-39-220.2-135.9-289.5c-0.2-0.5-0.5-1-1-1.4c-12.9-11-29-27.4-28.1-40.5c0.4-5.5,5.8-13.2,12.6-20.9c11.5-11.2,37.4-34.4,37.4-34.4l-0.2-0.2C760.5,374.3,793.9,275.1,793.9,169.8L793.9,169.8z M654.2,375.8c0,0-8.3,9.9-26.9,24.9c-8.8,9-18.1,17.2-27.7,24.5c-15.3,15.1-32.1,34.8-35.5,51.4h-0.9c-2.6,14.2-7.1,60.9,37.4,98.7c19.2,16.3,24.5,21.3,23.5,21.2c1.1,1.1,2.2,2.1,3.3,3.2c18.6,15,26.9,24.9,26.9,24.9c65.1,54.6,72.1,175.6,72.9,205.5h-50.8c2.2-76.5-37.8-130.1-46-140.9c-8.3-10.9-17.5-24.5-50.9-63c-33.3-38.5-63.2-100.8-55.9-133.6c7.3-32.8,52.6-78.7,68.8-97.9c16.1-19.3,14.6-33.3,14.6-33.3H394.1c0,0-1.6,14.1,14.6,33.3c16.2,19.3,61.5,65.1,68.8,97.9c7.3,32.8-15.1,87.8-48.5,126.3c-33.3,38.6-46.2,55.7-54.5,66.6c-8.3,10.8-53.1,68.1-50.9,144.6h-51.1c0.7-30,7.7-150.9,72.9-205.5c0,0,8.3-9.9,26.9-24.9c1.1-1.1,2.2-2.1,3.3-3.2c-1,0.2,4.3-4.9,23.5-21.2c44.5-37.7,40-84.5,37.4-98.7h-0.9c-3.4-16.6-20.2-36.3-35.5-51.4c-9.6-7.3-18.9-15.5-27.7-24.5c-18.6-15-26.9-24.9-26.9-24.9c-64.9-54.5-80.3-175.9-81.1-206.4h471.3C734.8,199.9,719.1,321.4,654.2,375.8L654.2,375.8z"/></g>
</svg>